<svg width="512" height="512" viewBox="0 0 512 512" fill="none" xmlns="http://www.w3.org/2000/svg">
<path d="M256 56C366.456 56 456 145.544 456 256C456 366.456 366.456 456 256 456C145.544 456 56 366.456 56 256C56 145.544 145.544 56 256 56Z" fill="#0052FF"/>
<path d="M256.087 326.282C217.215 326.282 185.805 294.786 185.805 256C185.805 217.215 217.301 185.718 256.087 185.718C290.881 185.718 319.774 211.055 325.327 244.287H396.13C390.143 172.096 329.753 115.35 256 115.35C178.343 115.35 115.349 178.343 115.349 256C115.349 333.658 178.343 396.651 256 396.651C329.753 396.651 390.143 339.905 396.13 267.714H325.241C319.688 300.946 290.881 326.282 256.087 326.282Z" fill="white"/>
</svg>
