<svg width="512" height="512" viewBox="0 0 512 512" fill="none" xmlns="http://www.w3.org/2000/svg">
<path d="M437.246 73.1436L280.094 189.425L309.318 120.897L437.246 73.1436Z" fill="#E17726" stroke="#E17726" stroke-width="0.25" stroke-linecap="round" stroke-linejoin="round"/>
<path d="M74.7605 73.1436L230.513 190.51L202.689 120.896L74.7605 73.1436Z" fill="#E27625" stroke="#E27625" stroke-width="0.25" stroke-linecap="round" stroke-linejoin="round"/>
<path d="M380.659 342.761L338.844 406.638L428.378 431.29L454.027 344.156L380.659 342.761Z" fill="#E27625" stroke="#E27625" stroke-width="0.25" stroke-linecap="round" stroke-linejoin="round"/>
<path d="M58.125 344.156L83.6175 431.29L172.997 406.638L131.338 342.761L58.125 344.156Z" fill="#E27625" stroke="#E27625" stroke-width="0.25" stroke-linecap="round" stroke-linejoin="round"/>
<path d="M168.173 234.852L143.302 272.372L231.905 276.403L228.95 181.053L168.173 234.852Z" fill="#E27625" stroke="#E27625" stroke-width="0.25" stroke-linecap="round" stroke-linejoin="round"/>
<path d="M343.824 234.852L282.113 179.967L280.094 276.403L368.695 272.372L343.824 234.852Z" fill="#E27625" stroke="#E27625" stroke-width="0.25" stroke-linecap="round" stroke-linejoin="round"/>
<path d="M173 406.639L226.627 380.747L180.461 344.777L173 406.639Z" fill="#E27625" stroke="#E27625" stroke-width="0.25" stroke-linecap="round" stroke-linejoin="round"/>
<path d="M285.375 380.747L338.846 406.639L331.542 344.777L285.375 380.747Z" fill="#E27625" stroke="#E27625" stroke-width="0.25" stroke-linecap="round" stroke-linejoin="round"/>
<path d="M338.847 406.64L285.375 380.748L289.728 415.477L289.261 430.206L338.847 406.64Z" fill="#D5BFB2" stroke="#D5BFB2" stroke-width="0.25" stroke-linecap="round" stroke-linejoin="round"/>
<path d="M172.99 406.64L222.731 430.206L222.42 415.477L226.618 380.748L172.99 406.64Z" fill="#D5BFB2" stroke="#D5BFB2" stroke-width="0.25" stroke-linecap="round" stroke-linejoin="round"/>
<path d="M223.675 321.831L179.219 308.808L210.619 294.389L223.675 321.831Z" fill="#233447" stroke="#233447" stroke-width="0.25" stroke-linecap="round" stroke-linejoin="round"/>
<path d="M288.333 321.831L301.391 294.389L332.946 308.808L288.333 321.831Z" fill="#233447" stroke="#233447" stroke-width="0.25" stroke-linecap="round" stroke-linejoin="round"/>
<path d="M172.992 406.638L180.764 342.761L131.333 344.157L172.992 406.638Z" fill="#CC6228" stroke="#CC6228" stroke-width="0.25" stroke-linecap="round" stroke-linejoin="round"/>
<path d="M331.229 342.761L338.846 406.638L380.66 344.157L331.229 342.761Z" fill="#CC6228" stroke="#CC6228" stroke-width="0.25" stroke-linecap="round" stroke-linejoin="round"/>
<path d="M368.696 272.373L280.094 276.404L288.332 321.831L301.389 294.389L332.944 308.808L368.696 272.373Z" fill="#CC6228" stroke="#CC6228" stroke-width="0.25" stroke-linecap="round" stroke-linejoin="round"/>
<path d="M179.209 308.808L210.608 294.389L223.666 321.831L231.904 276.404L143.302 272.373L179.209 308.808Z" fill="#CC6228" stroke="#CC6228" stroke-width="0.25" stroke-linecap="round" stroke-linejoin="round"/>
<path d="M143.302 272.373L180.453 344.778L179.21 308.808L143.302 272.373Z" fill="#E27525" stroke="#E27525" stroke-width="0.25" stroke-linecap="round" stroke-linejoin="round"/>
<path d="M332.951 308.808L331.552 344.778L368.703 272.373L332.951 308.808Z" fill="#E27525" stroke="#E27525" stroke-width="0.25" stroke-linecap="round" stroke-linejoin="round"/>
<path d="M231.906 276.404L223.667 321.833L234.081 375.476L236.413 304.777L231.906 276.404Z" fill="#E27525" stroke="#E27525" stroke-width="0.25" stroke-linecap="round" stroke-linejoin="round"/>
<path d="M280.103 276.404L275.75 304.623L277.926 375.476L288.341 321.833L280.103 276.404Z" fill="#E27525" stroke="#E27525" stroke-width="0.25" stroke-linecap="round" stroke-linejoin="round"/>
<path d="M288.331 321.831L277.917 375.475L285.378 380.747L331.545 344.777L332.943 308.808L288.331 321.831Z" fill="#F5841F" stroke="#F5841F" stroke-width="0.25" stroke-linecap="round" stroke-linejoin="round"/>
<path d="M179.219 308.808L180.463 344.777L226.628 380.747L234.09 375.475L223.675 321.831L179.219 308.808Z" fill="#F5841F" stroke="#F5841F" stroke-width="0.25" stroke-linecap="round" stroke-linejoin="round"/>
<path d="M289.26 430.205L289.727 415.476L285.685 412.065H226.307L222.42 415.476L222.731 430.205L172.99 406.639L190.4 420.902L225.684 445.244H286.152L321.593 420.902L338.847 406.639L289.26 430.205Z" fill="#C0AC9D" stroke="#C0AC9D" stroke-width="0.25" stroke-linecap="round" stroke-linejoin="round"/>
<path d="M285.382 380.747L277.921 375.476H234.086L226.625 380.747L222.427 415.476L226.314 412.065H285.692L289.734 415.476L285.382 380.747Z" fill="#161616" stroke="#161616" stroke-width="0.25" stroke-linecap="round" stroke-linejoin="round"/>
<path d="M443.925 197.022L457.138 132.835L437.241 73.1436L285.375 185.549L343.82 234.852L426.36 258.884L444.547 237.643L436.619 231.906L449.21 220.434L439.573 212.992L452.164 203.379L443.925 197.022Z" fill="#763E1A" stroke="#763E1A" stroke-width="0.25" stroke-linecap="round" stroke-linejoin="round"/>
<path d="M54.854 132.835L68.222 197.022L59.6727 203.379L72.4189 212.992L62.7815 220.434L75.3723 231.906L67.4447 237.643L85.6315 258.884L168.172 234.852L226.617 185.549L74.7506 73.1436L54.854 132.835Z" fill="#763E1A" stroke="#763E1A" stroke-width="0.25" stroke-linecap="round" stroke-linejoin="round"/>
<path d="M426.372 258.884L343.832 234.852L368.703 272.372L331.552 344.777L380.672 344.156H454.04L426.372 258.884Z" fill="#F5841F" stroke="#F5841F" stroke-width="0.25" stroke-linecap="round" stroke-linejoin="round"/>
<path d="M168.178 234.852L85.6383 258.884L58.125 344.156H131.338L180.457 344.777L143.307 272.372L168.178 234.852Z" fill="#F5841F" stroke="#F5841F" stroke-width="0.25" stroke-linecap="round" stroke-linejoin="round"/>
<path d="M280.096 276.403L285.381 185.549L309.32 120.896H202.688L226.625 185.549L231.91 276.403L233.931 304.931L234.087 375.475H277.921L278.077 304.931L280.096 276.403Z" fill="#F5841F" stroke="#F5841F" stroke-width="0.25" stroke-linecap="round" stroke-linejoin="round"/>
</svg>
