<svg width="512" height="512" viewBox="0 0 512 512" fill="none" xmlns="http://www.w3.org/2000/svg">
<path d="M122.499 171.519C196.291 99.271 315.93 99.271 389.722 171.519L398.603 180.214C402.293 183.827 402.293 189.684 398.603 193.296L368.222 223.04C366.379 224.847 363.388 224.847 361.542 223.04L349.32 211.075C297.843 160.673 214.379 160.673 162.9 211.075L149.812 223.889C147.967 225.696 144.976 225.696 143.131 223.889L112.751 194.145C109.062 190.532 109.062 184.675 112.751 181.063L122.499 171.519ZM452.55 233.034L479.588 259.507C483.279 263.119 483.279 268.977 479.588 272.589L357.672 391.957C353.982 395.569 348 395.569 344.311 391.957L257.781 307.238C256.86 306.334 255.364 306.334 254.44 307.238L167.913 391.957C164.224 395.569 158.242 395.569 154.552 391.957L32.6317 272.586C28.9423 268.975 28.9423 263.117 32.6317 259.505L59.67 233.032C63.3596 229.421 69.3416 229.421 73.031 233.032L159.562 317.753C160.484 318.656 161.979 318.656 162.902 317.753L249.427 233.032C253.118 229.421 259.1 229.421 262.79 233.032L349.32 317.753C350.242 318.656 351.738 318.656 352.659 317.753L439.189 233.034C442.878 229.421 448.86 229.421 452.55 233.034Z" fill="#5090F9"/>
</svg>
